<?xml version="1.0" encoding="UTF-8" standalone="no"?>
<!-- Created with Inkscape (http://www.inkscape.org/) -->

<svg
   width="419.85562mm"
   height="169.00002mm"
   viewBox="0 0 419.85562 169.00002"
   version="1.1"
   id="svg7110"
   inkscape:export-filename="D:\Graphics\Inkskape\Logos\Webografie_1.png"
   inkscape:export-xdpi="120.99"
   inkscape:export-ydpi="120.99"
   sodipodi:docname="navbar-logo.svg"
   inkscape:version="1.1.2 (b8e25be833, 2022-02-05)"
   xmlns:inkscape="http://www.inkscape.org/namespaces/inkscape"
   xmlns:sodipodi="http://sodipodi.sourceforge.net/DTD/sodipodi-0.dtd"
   xmlns="http://www.w3.org/2000/svg"
   xmlns:svg="http://www.w3.org/2000/svg">
  <sodipodi:namedview
     id="namedview7112"
     pagecolor="#ffffff"
     bordercolor="#eeeeee"
     borderopacity="1"
     inkscape:pageshadow="0"
     inkscape:pageopacity="0"
     inkscape:pagecheckerboard="true"
     inkscape:document-units="mm"
     showgrid="false"
     inkscape:zoom="0.87811988"
     inkscape:cx="814.80902"
     inkscape:cy="332.52863"
     inkscape:window-width="2560"
     inkscape:window-height="1017"
     inkscape:window-x="-8"
     inkscape:window-y="-8"
     inkscape:window-maximized="1"
     inkscape:current-layer="layer1"
     inkscape:snap-center="true"
     fit-margin-top="0"
     fit-margin-left="0"
     fit-margin-right="0"
     fit-margin-bottom="0" />
  <defs
     id="defs7107" />
  <g
     inkscape:label="Layer 1"
     inkscape:groupmode="layer"
     id="layer1"
     transform="translate(-64.3165,-64.497354)">
    <g
       id="g121">
      <path
         id="circle6494"
         style="fill:#ffffff;fill-opacity:1;stroke:#ffffff;stroke-width:0;stroke-linecap:round;stroke-miterlimit:4;stroke-dasharray:none;stroke-opacity:1"
         d="M 876.69727,243.76953 A 319.37069,319.36956 0 0 0 557.32812,563.13867 319.37069,319.36956 0 0 0 876.69727,882.50977 319.37069,319.36956 0 0 0 1196.0664,563.13867 319.37069,319.36956 0 0 0 876.69727,243.76953 Z M 604.37695,411.69141 h 96.4961 c 6.1566,0 11.18124,1.94877 15.07617,5.84375 3.89518,3.89498 5.84375,8.91957 5.84375,15.07617 V 520.25 c 0,7.78998 -3.51847,14.32253 -10.55469,19.59961 l -20.73242,12.43945 22.24023,14.32227 c 6.53355,4.02063 9.79883,10.30383 9.79883,18.84765 v 100.26368 c 0,6.15657 -1.94687,11.18312 -5.8418,15.07812 -3.89492,3.89498 -8.91957,5.8418 -15.07617,5.8418 h -97.25 z m 456.43165,0 h 77.459 c 6.1566,0 11.1832,1.94877 15.0781,5.84375 3.8952,3.89498 5.8418,8.91957 5.8418,15.07617 v 68.60351 h -26.3848 v -66.34179 h -66.7168 v 248.58789 h 66.7168 V 581.5 h -31.4746 v -22.61523 h 57.8594 v 126.83789 c 0,6.15657 -1.9466,11.18312 -5.8418,15.07812 -3.8949,3.89498 -8.9215,5.8418 -15.0781,5.8418 h -77.459 c -6.1566,0 -11.1832,-1.94682 -15.0781,-5.8418 -3.895,-3.895 -5.8418,-8.92155 -5.8418,-15.07812 V 432.61133 c 0,-6.1566 1.9468,-11.18119 5.8418,-15.07617 3.8949,-3.89498 8.9215,-5.84375 15.0781,-5.84375 z m -430.23438,23.18164 v 106.48437 h 38.63476 l 26.19727,-17.7168 v -88.76757 z m 246.12305,12.71093 A 115.55492,115.5545 0 0 1 992.25195,563.13867 115.55492,115.5545 0 0 1 876.69727,678.69336 115.55492,115.5545 0 0 1 761.14258,563.13867 115.55492,115.5545 0 0 1 876.69727,447.58398 Z M 630.57422,564.16211 v 119.29883 h 65.58594 V 581.5 l -26.57422,-17.33789 z"
         transform="scale(0.26458333)" />
      <path
         d="m 114.1817,108.92689 -10.6213,78.23855 h -5.6348 l -8.4771,-58.84098 q -0.05,-1.54582 -0.1994,-4.5876 0,1.59569 -0.1995,4.5876 l -8.4771,58.84098 H 74.9378 L 64.3165,108.92689 h 6.8814 l 6.632,56.29785 q 0.05,1.89488 0.1995,5.5849 -0.05,-1.89488 0.1995,-5.5849 l 8.0781,-56.29785 h 5.934 l 8.0283,56.29785 q 0.1,1.89488 0.1995,5.5849 0,-1.89488 0.2493,-5.5849 l 6.6321,-56.29785 z"
         id="path6496"
         style="font-size:102.124px;line-height:1.25;font-family:'Agency FB';-inkscape-font-specification:'Agency FB, Normal';fill:#ffffff;stroke-width:2.55311" />
      <path
         d="m 149.0874,186.96598 h -25.6308 v -78.03909 h 25.3316 v 6.13342 h -18.4003 v 29.1213 h 16.7547 v 6.23315 h -16.7547 v 30.4178 h 18.6995 z"
         id="path6498"
         style="font-size:102.124px;line-height:1.25;font-family:'Agency FB';-inkscape-font-specification:'Agency FB, Normal';fill:#ffffff;stroke-width:2.55311" />
      <path
         d="m 352.27863,186.96598 h -7.2804 l -14.5107,-41.78707 0.9474,-1.39622 h 12.3666 v -28.72238 h -17.8019 v 71.90567 h -6.9313 v -78.03909 h 26.1294 q 2.4434,0 3.9892,1.54582 1.5458,1.54582 1.5458,3.98922 v 29.61995 q 0,5.63477 -7.5795,5.63477 -0.7479,0 -2.194,-0.0499 -1.4461,-0.0997 -2.0944,-0.0997 6.7318,18.6496 13.4138,37.39893 z"
         id="path6504"
         style="font-size:102.124px;line-height:1.25;font-family:'Agency FB';-inkscape-font-specification:'Agency FB, Normal';fill:#ffffff;stroke-width:2.55311" />
      <path
         d="m 394.11553,186.96598 h -6.8814 l -2.7426,-17.3531 h -15.5081 l -2.7425,17.3531 h -6.682 v -0.19946 l 13.9124,-78.03909 h 6.8315 z m -10.5215,-23.48653 -6.8316,-42.28572 -6.8814,42.28572 z"
         id="path6506"
         style="font-size:102.124px;line-height:1.25;font-family:'Agency FB';-inkscape-font-specification:'Agency FB, Normal';fill:#ffffff;stroke-width:2.55311" />
      <path
         d="m 428.62223,115.06031 h -18.2008 v 29.61995 h 16.7547 v 6.23315 h -16.7547 v 36.05257 h -6.9312 v -78.03909 h 25.132 z"
         id="path6508"
         style="font-size:102.124px;line-height:1.25;font-family:'Agency FB';-inkscape-font-specification:'Agency FB, Normal';fill:#ffffff;stroke-width:2.55311" />
      <path
         d="m 445.52663,186.96598 h -6.9313 v -78.03909 h 6.9313 z"
         id="path6510"
         style="font-size:102.124px;line-height:1.25;font-family:'Agency FB';-inkscape-font-specification:'Agency FB, Normal';fill:#ffffff;stroke-width:2.55311" />
      <path
         d="m 484.17213,186.96598 h -25.6307 v -78.03909 h 25.3315 v 6.13342 h -18.4002 v 29.1213 h 16.7547 v 6.23315 h -16.7547 v 30.4178 h 18.6994 z"
         id="path6512"
         style="font-size:102.124px;line-height:1.25;font-family:'Agency FB';-inkscape-font-specification:'Agency FB, Normal';fill:#ffffff;stroke-width:2.55311" />
    </g>
  </g>
</svg>
